<svg width="32" height="28" viewBox="0 0 32 28" fill="none" xmlns="http://www.w3.org/2000/svg">
<g clip-path="url(#clip0_2_926)">
<path d="M7.13831 4.93862C12.6518 12.0818 19.3509 18.2329 26.8807 23.1898C29.0602 24.6247 31.0867 21.12 28.9199 19.6936C21.6756 14.9246 15.2971 8.94429 9.99533 2.07552C9.32718 1.20989 7.8409 1.37143 7.13832 2.07552C6.2858 2.92985 6.4684 4.07071 7.13831 4.93862Z" fill="#01010C"/>
<path d="M28.5578 0.577065C19.2336 8.57132 9.90937 16.5656 0.585162 24.5598C-0.244371 25.271 -0.144128 26.6921 0.585162 27.4229C1.4073 28.2468 2.61059 28.1359 3.44218 27.4229C12.7664 19.4287 22.0906 11.4344 31.4148 3.44018C32.2444 2.72897 32.1441 1.30792 31.4148 0.577073C30.5927 -0.246819 29.3894 -0.135908 28.5578 0.577065Z" fill="#01010C"/>
</g>
<defs>
<clipPath id="clip0_2_926">
<rect width="32" height="28" fill="white"/>
</clipPath>
</defs>
</svg>
