<svg width="355" height="246" viewBox="0 0 355 246" fill="none" xmlns="http://www.w3.org/2000/svg">
<g clip-path="url(#clip0_2_893)">
<path d="M70.7314 246C109.795 246 141.463 243.605 141.463 240.65C141.463 237.695 109.795 235.299 70.7314 235.299C31.6675 235.299 0 237.695 0 240.65C0 243.605 31.6675 246 70.7314 246Z" fill="#E6E6E6"/>
<path d="M54.0658 54.5831C66.3752 49.3685 81.7067 52.6724 96.6796 54.9655C96.8189 52.1886 98.5078 48.809 96.7387 46.8717C94.5894 44.518 94.7872 42.045 96.0806 39.5577C99.3879 33.1974 94.6494 26.4297 89.8651 20.8024C88.7867 19.5369 87.4238 18.5426 85.8872 17.9002C84.3505 17.2578 82.6834 16.9855 81.0212 17.1053L72.1585 17.7358C70.0019 17.8893 67.9437 18.695 66.2594 20.0453C64.5752 21.3956 63.3451 23.226 62.7338 25.2916C60.6176 28.1582 59.4849 31.0168 60.1981 33.8606C57.0283 36.018 56.4957 38.6223 57.9201 41.5582C59.1279 43.4068 59.1151 45.2061 57.8652 46.9557C56.2237 49.1863 54.9664 51.6735 54.145 54.3153L54.0658 54.5831Z" fill="#2F2E41"/>
<path d="M346.588 212.663H95.7072C93.4762 212.663 91.3365 211.78 89.759 210.209C88.1814 208.638 87.2951 206.507 87.2951 204.285C178.239 193.758 267.474 193.758 355 204.285C355 206.507 354.114 208.638 352.536 210.209C350.959 211.78 348.819 212.663 346.588 212.663Z" fill="#2F2E41"/>
<path d="M355 204.778L87.2951 204.285L118.321 152.289L118.47 152.043V37.4514C118.469 36.0605 118.744 34.6832 119.279 33.3981C119.813 32.1131 120.596 30.9455 121.584 29.962C122.571 28.9784 123.744 28.1983 125.034 27.6661C126.324 27.1339 127.707 26.86 129.104 26.8601H311.707C313.104 26.86 314.486 27.1339 315.777 27.6661C317.067 28.1983 318.239 28.9784 319.227 29.962C320.214 30.9455 320.997 32.1131 321.532 33.3981C322.066 34.6832 322.341 36.0605 322.341 37.4514V152.832L355 204.778Z" fill="#3F3D56"/>
<path d="M128.861 34.2528C127.943 34.2538 127.062 34.6176 126.413 35.2644C125.764 35.9112 125.398 36.7881 125.397 37.7027V142.186C125.398 143.101 125.764 143.978 126.413 144.624C127.062 145.271 127.943 145.635 128.861 145.636H313.434C314.352 145.635 315.233 145.271 315.882 144.624C316.531 143.978 316.897 143.101 316.898 142.186V37.7027C316.897 36.7881 316.531 35.9112 315.882 35.2644C315.233 34.6177 314.352 34.2539 313.434 34.2528H128.861Z" fill="white"/>
<path d="M129.635 159.436C129.351 159.436 129.073 159.517 128.834 159.67C128.595 159.822 128.405 160.04 128.286 160.296L118.726 180.996C118.622 181.221 118.576 181.469 118.593 181.716C118.611 181.963 118.69 182.203 118.824 182.411C118.959 182.62 119.143 182.792 119.362 182.911C119.58 183.03 119.825 183.092 120.074 183.092H321.118C321.371 183.092 321.62 183.028 321.841 182.905C322.062 182.782 322.248 182.605 322.381 182.391C322.514 182.177 322.589 181.932 322.601 181.68C322.612 181.428 322.559 181.178 322.445 180.952L312.054 160.253C311.931 160.007 311.742 159.8 311.507 159.655C311.273 159.511 311.002 159.435 310.726 159.436H129.635Z" fill="#2F2E41"/>
<path d="M220.405 32.5278C221.635 32.5278 222.632 31.5349 222.632 30.31C222.632 29.0852 221.635 28.0922 220.405 28.0922C219.175 28.0922 218.179 29.0852 218.179 30.31C218.179 31.5349 219.175 32.5278 220.405 32.5278Z" fill="white"/>
<path d="M200.644 187.035C200.318 187.035 200.001 187.143 199.742 187.341C199.483 187.538 199.296 187.815 199.211 188.129L196.813 197C196.754 197.219 196.746 197.449 196.79 197.672C196.834 197.894 196.929 198.104 197.068 198.284C197.207 198.464 197.385 198.61 197.589 198.711C197.794 198.811 198.018 198.863 198.246 198.863H243.852C244.089 198.863 244.322 198.807 244.532 198.699C244.742 198.591 244.924 198.434 245.061 198.242C245.198 198.05 245.287 197.828 245.321 197.595C245.355 197.362 245.332 197.124 245.254 196.901L242.171 188.03C242.07 187.739 241.881 187.488 241.629 187.309C241.378 187.131 241.077 187.035 240.768 187.035H200.644Z" fill="#2F2E41"/>
<path d="M322.341 150.318V152.289H118.321L118.475 152.043V150.318H322.341Z" fill="#2F2E41"/>
<path d="M316.65 68.9984C335.781 68.9984 351.289 53.5526 351.289 34.4992C351.289 15.4458 335.781 0 316.65 0C297.52 0 282.012 15.4458 282.012 34.4992C282.012 53.5526 297.52 68.9984 316.65 68.9984Z" fill="#415A77"/>
<path d="M331.001 49.531H302.3C301.775 49.5305 301.272 49.3227 300.901 48.9531C300.53 48.5835 300.321 48.0823 300.321 47.5597V30.31C300.321 29.7874 300.53 29.2863 300.901 28.9167C301.272 28.5471 301.775 28.3392 302.3 28.3387H331.001C331.525 28.3392 332.028 28.5471 332.4 28.9167C332.771 29.2863 332.979 29.7874 332.98 30.31V47.5596C332.979 48.0823 332.771 48.5835 332.4 48.9531C332.029 49.3227 331.525 49.5305 331.001 49.531ZM302.3 30.31V47.5597H331.002L331.001 30.31L302.3 30.31Z" fill="white"/>
<path d="M325.557 30.31H307.743V22.4245C307.743 16.713 311.489 12.5676 316.65 12.5676C321.811 12.5676 325.557 16.713 325.557 22.4245L325.557 30.31ZM309.723 28.3386H323.578V22.4245C323.578 17.7817 320.729 14.539 316.65 14.539C312.571 14.539 309.723 17.7817 309.723 22.4245L309.723 28.3386Z" fill="white"/>
<path d="M316.65 40.4134C317.744 40.4134 318.63 39.5308 318.63 38.442C318.63 37.3532 317.744 36.4706 316.65 36.4706C315.557 36.4706 314.671 37.3532 314.671 38.442C314.671 39.5308 315.557 40.4134 316.65 40.4134Z" fill="white"/>
<path d="M292.47 110.196H149.825C149.125 110.195 148.453 109.918 147.958 109.425C147.463 108.932 147.185 108.263 147.184 107.565V72.3234C147.185 71.6259 147.463 70.9572 147.958 70.464C148.453 69.9707 149.125 69.6933 149.825 69.6925H292.47C293.17 69.6933 293.842 69.9707 294.337 70.464C294.832 70.9572 295.111 71.6259 295.111 72.3234V107.565C295.111 108.263 294.832 108.932 294.337 109.425C293.842 109.918 293.17 110.195 292.47 110.196ZM149.825 70.7449C149.405 70.7453 149.002 70.9118 148.705 71.2077C148.408 71.5037 148.241 71.9049 148.24 72.3234V107.565C148.241 107.984 148.408 108.385 148.705 108.681C149.002 108.977 149.405 109.143 149.825 109.144H292.47C292.89 109.143 293.293 108.977 293.59 108.681C293.887 108.385 294.054 107.984 294.055 107.565V72.3234C294.054 71.9049 293.887 71.5036 293.59 71.2077C293.293 70.9118 292.89 70.7453 292.47 70.7448L149.825 70.7449Z" fill="#E6E6E6"/>
<path d="M171.989 99.3093C177.932 99.3093 182.75 94.5111 182.75 88.5922C182.75 82.6733 177.932 77.875 171.989 77.875C166.047 77.875 161.229 82.6733 161.229 88.5922C161.229 94.5111 166.047 99.3093 171.989 99.3093Z" fill="#E6E6E6"/>
<path d="M196.841 81.4474C196.605 81.447 196.371 81.493 196.153 81.5826C195.935 81.6722 195.737 81.8037 195.571 81.9696C195.404 82.1355 195.271 82.3325 195.181 82.5494C195.091 82.7663 195.044 82.9988 195.044 83.2336C195.044 83.4684 195.091 83.7009 195.181 83.9178C195.271 84.1347 195.404 84.3317 195.571 84.4976C195.737 84.6635 195.935 84.795 196.153 84.8846C196.371 84.9742 196.605 85.0202 196.841 85.0198H281.386C281.862 85.0198 282.318 84.8316 282.654 84.4966C282.99 84.1616 283.179 83.7073 283.179 83.2336C283.179 82.7599 282.99 82.3056 282.654 81.9706C282.318 81.6356 281.862 81.4474 281.386 81.4474H196.841Z" fill="#E6E6E6"/>
<path d="M196.841 92.1645C196.365 92.1645 195.909 92.3527 195.572 92.6877C195.236 93.0227 195.047 93.477 195.047 93.9507C195.047 94.4244 195.236 94.8788 195.572 95.2137C195.909 95.5487 196.365 95.7369 196.841 95.7369H233.221C233.696 95.7369 234.152 95.5487 234.489 95.2137C234.825 94.8788 235.014 94.4244 235.014 93.9507C235.014 93.477 234.825 93.0227 234.489 92.6877C234.152 92.3527 233.696 92.1645 233.221 92.1645H196.841Z" fill="#E6E6E6"/>
<path d="M117.97 92.8871L91.6011 106.85L91.2674 95.2142C99.874 93.7832 108.062 91.2917 115.634 87.2356L118.391 80.4494C118.692 79.7099 119.18 79.061 119.809 78.5664C120.437 78.0717 121.184 77.7483 121.976 77.6278C122.767 77.5074 123.577 77.5941 124.325 77.8795C125.073 78.1648 125.734 78.639 126.242 79.2554C126.986 80.1573 127.358 81.3071 127.282 82.4718C127.207 83.6366 126.689 84.7292 125.835 85.5283L117.97 92.8871Z" fill="#FFB8B8"/>
<path d="M53.5402 173.502C53.3478 172.8 53.307 172.064 53.4203 171.345C53.5337 170.625 53.7987 169.938 54.1979 169.328L59.9904 160.474C61.3605 158.379 63.4627 156.867 65.8893 156.229C68.3159 155.592 70.8937 155.874 73.1227 157.023C70.6883 161.15 71.0277 164.771 73.9635 167.917C69.406 170.133 65.1938 172.993 61.4574 176.409C60.7753 176.872 59.992 177.166 59.1726 177.266C58.3533 177.367 57.5217 177.271 56.7471 176.987C55.9725 176.702 55.2773 176.238 54.7195 175.632C54.1617 175.026 53.7573 174.296 53.5402 173.502Z" fill="#2F2E41"/>
<path d="M119.171 161.926C118.295 163.381 117.057 164.587 115.578 165.428C114.099 166.27 112.427 166.719 110.723 166.732L72.2417 167.022L70.5728 157.381L87.5958 152.394L73.243 141.424L88.9309 123.139L117.425 149.59C119.09 151.136 120.172 153.205 120.49 155.45C120.808 157.695 120.342 159.981 119.171 161.926Z" fill="#2F2E41"/>
<path d="M66.2335 227.859H57.2214C49.1297 172.617 40.8932 117.22 65.2322 96.544L93.9376 101.198L90.266 125.467L74.2444 143.751L66.2335 227.859Z" fill="#2F2E41"/>
<path d="M74.1557 240.373C73.4502 240.565 72.7119 240.606 71.9895 240.493C71.2671 240.38 70.5768 240.116 69.9641 239.718L60.1787 238.408C58.076 237.044 56.5572 234.95 55.9169 232.533C55.2765 230.117 55.5604 227.549 56.7133 225.329C60.8573 227.753 64.4925 227.415 67.6514 224.491C69.8835 228.98 73.5611 228.706 77.0733 232.488C77.5383 233.167 77.8337 233.947 77.9347 234.763C78.0357 235.579 77.9395 236.407 77.654 237.179C77.3686 237.95 76.9022 238.643 76.2937 239.198C75.6851 239.754 74.9521 240.157 74.1557 240.373Z" fill="#2F2E41"/>
<path d="M87.5957 59.6427L70.9065 55.6534C73.6783 50.0025 73.9066 43.7147 72.5754 37.0365L83.9241 36.7041C84.2797 45.0086 85.3555 52.7671 87.5957 59.6427Z" fill="#FFB8B8"/>
<path d="M92.1825 111.208C80.0334 119.453 71.4492 111.49 64.8984 99.2035C65.8087 91.6853 64.3348 82.6883 61.605 72.9123C60.391 68.6003 60.8443 63.9918 62.8753 59.9965C64.9063 56.0011 68.3674 52.9094 72.5754 51.3316L86.9281 57.3156C99.1153 67.2096 101.514 77.9268 96.9417 89.2302L92.1825 111.208Z" fill="#415A77"/>
<path d="M57.2214 67.9538L43.87 74.9351L67.5687 88.8978L70.8662 96.999C71.0863 97.5397 71.1935 98.1194 71.1813 98.7027C71.1691 99.286 71.0378 99.8608 70.7953 100.392C70.5528 100.923 70.2042 101.399 69.7708 101.792C69.3375 102.185 68.8283 102.485 68.2745 102.675C67.645 102.891 66.9738 102.96 66.3134 102.874C65.653 102.789 65.0214 102.553 64.4681 102.184C63.9147 101.815 63.4547 101.323 63.1239 100.747C62.7932 100.172 62.6007 99.5277 62.5616 98.8656L62.2281 93.2195L32.1074 83.3196C31.0925 82.986 30.1672 82.4269 29.4015 81.6844C28.6358 80.9419 28.0497 80.0356 27.6877 79.0341C27.1601 77.5744 27.1332 75.9816 27.6113 74.505C28.0895 73.0284 29.0456 71.7513 30.3301 70.8736L54.5511 54.3236L57.2214 67.9538Z" fill="#FFB8B8"/>
<path d="M70.5727 69.2836C65.0044 66.8531 59.9409 69.4933 53.5498 71.6107L52.5484 53.9912C58.8946 50.6223 64.9452 49.714 70.5728 52.329L70.5727 69.2836Z" fill="#415A77"/>
<path d="M77.2338 45.4317C83.1186 45.4317 87.8892 40.6802 87.8892 34.819C87.8892 28.9579 83.1186 24.2064 77.2338 24.2064C71.3489 24.2064 66.5783 28.9579 66.5783 34.819C66.5783 40.6802 71.3489 45.4317 77.2338 45.4317Z" fill="#FFB8B8"/>
<path d="M89.9811 33.48C79.4313 34.5091 71.3924 32.7906 66.2547 27.8977V23.9572H89.0857L89.9811 33.48Z" fill="#2F2E41"/>
</g>
<defs>
<clipPath id="clip0_2_893">
<rect width="355" height="246" fill="white"/>
</clipPath>
</defs>
</svg>
